{"glyphs":{"0":{"ha":583,"x_min":15,"x_max":567,"o":"m 88 -8 q 35 44 56 10 q 15 118 15 78 l 15 822 q 26 879 15 853 q 58 925 38 906 q 104 956 78 944 q 161 968 131 968 l 301 968 q 374 949 342 968 q 426 897 407 929 l 524 803 q 555 758 543 783 q 567 701 567 732 l 567 -3 q 556 -58 567 -32 q 525 -103 544 -83 q 480 -133 506 -122 q 425 -144 454 -144 l 285 -144 q 186 -104 226 -144 l 88 -8 m 278 183 q 266 153 278 165 q 236 142 254 142 l 226 142 q 197 153 208 142 q 185 183 185 165 l 185 757 q 197 788 185 775 q 226 800 208 800 l 236 800 q 266 788 254 800 q 278 757 278 775 l 278 183 m 419 822 q 385 906 419 871 q 301 940 350 940 l 161 940 q 78 906 113 940 q 43 822 43 871 l 43 118 q 78 35 43 69 q 161 0 113 0 l 301 0 q 385 35 350 0 q 419 118 419 69 l 419 822 z "},"1":{"ha":504,"x_min":13,"x_max":485,"o":"m 365 968 l 365 960 l 485 843 l 485 -144 l 296 -144 l 176 -28 l 168 -28 l 168 581 l 103 644 q 99 642 100 642 l 13 821 q 111 888 71 849 q 183 968 151 928 l 365 968 m 196 940 q 129 866 165 901 q 49 808 93 831 l 110 682 q 155 706 131 693 q 196 738 179 719 l 196 0 l 338 0 l 338 940 l 196 940 z "},"2":{"ha":583,"x_min":15,"x_max":567,"o":"m 24 -28 l 15 -28 l 15 288 q 26 356 15 325 q 56 415 38 388 q 98 467 75 443 q 146 514 121 492 l 143 514 l 24 631 l 15 631 l 15 824 q 58 927 15 886 q 161 968 100 968 l 303 968 q 374 948 342 968 q 426 896 407 928 l 524 801 q 555 756 543 782 q 567 703 567 731 l 567 507 q 554 433 567 467 q 521 369 542 399 q 474 315 500 340 q 424 268 449 290 l 425 268 q 373 217 397 240 q 338 169 349 193 l 447 169 l 447 161 l 567 44 l 567 -144 l 143 -144 l 24 -28 m 279 651 q 262 595 279 622 q 218 542 244 568 q 161 490 192 517 q 104 432 131 463 q 60 366 78 401 q 43 288 43 331 l 43 0 l 419 0 l 419 142 l 185 142 l 185 261 q 202 318 185 292 q 246 370 219 344 q 302 423 272 396 q 358 481 332 450 q 402 547 385 511 q 419 628 419 583 l 419 824 q 385 906 419 871 q 303 940 350 940 l 161 940 q 78 906 113 940 q 43 824 43 872 l 43 658 l 185 658 q 183 697 185 672 q 183 744 181 721 q 194 783 185 767 q 226 800 204 800 q 263 790 247 800 q 279 757 279 781 l 279 651 z "},"3":{"ha":583,"x_min":15,"x_max":568,"o":"m 88 -7 q 35 45 56 13 q 15 118 15 78 l 15 271 l 200 271 l 114 356 l 106 356 l 106 554 l 129 554 l 24 658 l 15 658 l 15 731 q 17 813 15 771 q 32 890 18 856 q 76 946 46 924 q 165 968 107 968 l 300 968 q 374 949 340 968 q 428 899 408 931 l 526 803 q 557 758 546 783 q 568 703 568 733 l 568 438 q 522 333 568 372 l 526 331 q 568 229 568 290 l 568 -3 q 557 -58 568 -32 q 526 -103 546 -83 q 481 -133 507 -122 q 426 -144 456 -144 l 286 -144 q 231 -133 257 -144 q 186 -103 206 -122 l 88 -7 m 247 799 q 279 757 279 788 l 279 568 q 261 535 279 544 q 219 524 243 526 q 171 524 196 522 q 133 526 146 526 l 133 383 q 172 385 147 383 q 220 385 196 388 q 262 374 244 383 q 279 342 279 364 l 279 183 q 264 151 279 161 q 229 142 249 142 q 199 152 208 142 q 185 178 189 163 q 183 210 182 193 q 185 243 185 228 l 43 243 l 43 118 q 78 35 43 69 q 163 0 114 0 l 303 0 q 386 35 351 0 q 421 118 421 69 l 421 350 q 403 410 421 382 q 358 454 386 439 q 403 498 386 469 q 421 558 421 526 l 421 824 q 411 870 421 849 q 385 908 401 892 q 347 932 368 924 q 300 940 325 940 l 165 940 q 87 917 113 940 q 51 857 61 893 q 42 778 42 821 q 43 700 43 736 l 43 686 l 186 686 q 185 718 186 701 q 185 751 183 735 q 194 779 186 767 q 218 799 201 792 l 231 800 l 247 799 z "},"4":{"ha":622,"x_min":14,"x_max":608,"o":"m 22 240 l 14 240 l 14 440 q 18 491 14 464 q 29 544 22 518 l 35 568 q 39 586 38 578 q 42 603 40 594 q 65 779 56 690 q 81 968 75 868 l 457 968 l 457 960 l 576 843 l 576 342 l 608 311 l 608 124 l 576 124 l 576 -144 l 389 -144 l 269 -28 l 261 -28 l 261 124 l 142 124 l 22 240 m 429 408 l 429 940 l 289 940 l 289 408 l 179 408 q 223 673 207 540 q 246 940 239 806 l 107 940 q 93 769 103 854 q 69 599 83 685 q 53 519 64 563 q 42 440 42 476 l 42 268 l 289 268 l 289 0 l 429 0 l 429 268 l 461 268 l 461 408 l 429 408 z "},"5":{"ha":582,"x_min":15,"x_max":567,"o":"m 94 -3 q 37 55 58 18 q 15 138 15 92 l 15 315 l 213 315 l 213 307 l 250 271 l 250 329 q 222 327 235 328 q 199 326 210 326 l 197 326 q 169 325 186 325 q 143 325 153 325 l 24 440 l 15 440 l 15 968 l 447 968 l 447 960 l 567 844 l 567 657 l 332 657 l 332 622 q 383 597 360 613 q 422 557 407 582 l 517 467 l 515 467 l 522 461 q 554 412 542 442 q 567 338 567 382 l 567 25 q 553 -39 567 -8 q 516 -92 539 -69 q 463 -129 493 -115 q 399 -143 432 -143 l 307 -143 q 244 -131 274 -143 q 192 -96 215 -118 l 94 -3 m 228 142 q 195 158 204 142 q 183 199 186 175 q 183 247 181 222 q 185 288 185 272 l 43 288 l 43 138 q 54 83 43 108 q 85 40 65 58 q 130 10 104 21 q 183 0 156 0 l 275 0 q 331 12 304 0 q 376 43 357 24 q 408 89 396 63 q 419 144 419 115 l 419 457 q 398 542 419 511 q 342 588 376 572 q 267 606 308 603 q 185 610 225 610 l 185 800 l 419 800 l 419 940 l 43 940 l 43 468 q 96 471 57 468 q 175 472 135 474 q 247 460 215 471 q 278 425 278 450 l 278 183 q 263 151 278 160 q 228 142 247 142 z "},"6":{"ha":588,"x_min":18,"x_max":571,"o":"m 67 17 q 68 14 67 15 l 67 17 m 335 589 l 335 549 q 393 528 367 542 q 435 485 419 514 l 529 394 l 528 394 l 535 389 q 561 349 551 374 q 571 289 571 325 l 571 -1 q 560 -56 571 -31 q 528 -101 549 -82 q 483 -132 508 -121 q 428 -143 457 -143 l 289 -143 q 235 -133 261 -143 q 190 -103 210 -122 l 90 -7 q 38 45 58 13 q 18 118 18 78 l 18 824 q 30 881 18 854 q 63 927 42 908 q 110 957 83 946 q 167 968 138 968 l 303 968 q 381 952 351 968 q 425 910 410 936 l 519 818 l 518 818 l 526 811 q 553 771 544 794 q 567 720 563 747 q 571 665 571 693 q 571 610 571 636 l 571 543 l 382 543 l 335 589 m 231 142 q 201 153 213 142 q 189 183 189 165 l 189 383 l 240 383 q 270 372 258 383 q 282 342 282 360 l 282 183 q 270 153 282 165 q 240 142 258 142 l 231 142 m 249 799 q 273 779 265 792 q 283 751 281 767 q 283 718 285 735 q 282 686 282 701 l 424 686 l 424 700 q 424 777 424 735 q 415 856 425 819 q 380 916 406 892 q 303 940 354 940 l 167 940 q 121 931 143 940 q 82 907 99 922 q 56 870 65 892 q 46 824 46 849 l 46 118 q 81 35 46 69 q 165 0 117 0 l 304 0 q 388 35 353 0 q 424 118 424 69 l 424 408 q 399 483 424 458 q 340 518 375 508 q 263 527 304 528 q 188 526 222 526 l 188 757 q 219 799 188 788 l 232 800 l 249 799 z "},"7":{"ha":569,"x_min":15,"x_max":554,"o":"m 435 965 l 435 957 l 554 840 l 554 676 q 551 653 554 669 q 541 616 547 638 q 527 570 535 594 q 511 521 519 546 q 492 460 500 489 q 478 408 483 432 q 427 139 446 275 q 408 -144 408 3 l 219 -144 l 100 -28 l 92 -28 q 118 319 93 150 q 188 653 143 489 l 143 653 l 24 769 l 15 769 l 15 965 l 435 965 m 43 938 l 43 797 l 258 797 q 158 403 196 603 q 119 0 121 204 l 261 0 q 280 269 261 136 q 331 535 299 403 q 340 569 333 547 q 356 619 347 592 q 373 674 364 646 q 390 728 382 703 q 402 772 397 753 q 407 797 407 790 l 407 938 l 43 938 z "},"8":{"ha":592,"x_min":17,"x_max":576,"o":"m 261 350 q 258 354 261 351 l 261 350 m 335 53 q 339 50 338 50 l 335 53 m 260 753 l 240 772 l 260 753 m 313 968 q 384 948 351 968 q 436 896 417 928 l 533 801 q 565 756 553 782 q 576 703 576 731 l 576 438 q 529 333 576 374 l 533 329 q 565 285 553 310 q 576 229 576 260 l 576 -3 q 565 -58 576 -32 q 534 -103 554 -83 q 488 -133 514 -122 q 433 -144 463 -144 l 288 -144 q 233 -133 258 -144 q 188 -103 207 -122 l 89 -7 q 37 45 57 13 q 17 118 17 78 l 17 350 q 63 454 17 411 q 17 558 17 496 l 17 824 q 28 879 17 853 q 60 925 40 906 q 106 956 79 944 q 161 968 132 968 l 313 968 m 288 568 q 275 539 288 551 q 246 526 263 526 l 228 526 q 198 538 210 526 q 186 568 186 550 l 186 757 q 194 783 186 774 q 218 799 203 792 l 236 800 l 256 799 q 279 783 271 792 q 288 757 288 774 l 288 568 m 186 342 q 199 372 186 360 q 229 383 211 383 l 244 383 q 275 372 263 383 q 288 342 288 360 l 288 183 q 275 153 288 165 q 244 142 263 142 l 229 142 q 199 153 211 142 q 186 183 186 165 l 186 342 m 161 940 q 79 906 114 940 q 44 824 44 871 l 44 558 q 63 498 44 526 q 108 454 81 469 q 62 411 79 439 q 44 350 44 383 l 44 118 q 80 35 44 69 q 164 0 115 0 l 310 0 q 394 35 358 0 q 429 118 429 69 l 429 350 q 412 411 429 383 q 365 454 394 439 q 411 498 393 469 q 429 558 429 526 l 429 824 q 394 906 429 871 q 313 940 360 940 l 161 940 z "},"9":{"ha":583,"x_min":15,"x_max":567,"o":"m 86 -7 q 35 45 54 13 q 15 118 15 78 l 15 283 l 135 283 l 75 340 q 31 384 47 356 q 15 461 15 413 l 15 822 q 27 880 15 853 q 60 926 39 907 q 107 957 81 946 q 163 968 133 968 l 301 968 q 375 948 342 968 q 428 896 408 928 l 524 803 q 555 758 543 783 q 567 701 567 732 l 567 -3 q 556 -59 567 -33 q 524 -103 544 -85 q 478 -133 504 -122 q 424 -144 453 -144 l 288 -144 q 185 -103 226 -144 l 86 -7 m 217 142 q 192 164 199 151 q 183 191 185 176 q 183 222 182 206 q 185 256 185 239 l 43 256 l 43 118 q 53 72 43 93 q 79 34 63 50 q 117 9 96 18 q 164 0 139 0 l 300 0 q 347 9 325 0 q 384 34 368 18 q 410 72 400 50 q 419 118 419 93 l 419 822 q 385 906 419 871 q 301 940 350 940 l 163 940 q 117 931 139 940 q 79 906 96 922 q 53 869 63 890 q 43 822 43 847 l 43 461 q 67 386 43 411 q 127 352 92 361 q 204 344 163 343 q 279 344 246 344 l 279 183 q 269 158 279 168 q 246 142 258 149 l 233 140 l 217 142 m 226 486 q 197 498 210 486 q 183 528 183 510 l 183 757 q 196 787 183 775 q 226 799 208 799 l 236 799 q 265 786 253 799 q 278 757 278 774 l 278 486 l 226 486 z "},"B":{"ha":583,"x_min":13,"x_max":565,"o":"m 21 -28 l 13 -28 l 13 968 l 281 968 q 365 950 325 968 q 426 896 404 932 l 524 800 l 526 799 q 555 756 544 781 q 565 701 565 732 l 565 481 q 519 376 565 415 l 524 374 q 565 272 565 333 l 564 -18 q 551 -69 564 -46 q 517 -108 538 -92 q 472 -135 497 -125 q 422 -144 447 -144 l 140 -144 l 21 -28 m 276 183 q 264 153 276 165 q 233 140 251 140 l 182 140 l 182 426 l 233 426 q 264 415 251 426 q 276 385 276 403 l 276 183 m 299 0 q 340 8 319 0 q 378 29 361 15 q 406 62 394 43 q 417 103 417 81 l 418 393 q 401 453 418 425 q 356 497 383 482 q 401 541 383 513 q 418 601 418 569 l 418 822 q 406 874 418 851 q 376 910 394 896 q 332 933 357 925 q 281 940 307 940 l 40 940 l 40 0 l 299 0 m 183 569 l 183 799 l 226 799 q 261 788 246 799 q 276 757 276 778 l 276 611 q 267 583 276 597 q 242 569 257 569 l 183 569 z "},"C":{"ha":578,"x_min":11,"x_max":563,"o":"m 443 301 l 563 185 l 563 -4 q 551 -58 563 -32 q 521 -103 540 -83 q 476 -133 501 -122 q 422 -144 450 -144 l 281 -144 q 181 -104 221 -144 l 82 -8 q 31 44 50 11 q 11 117 11 76 l 11 822 q 22 879 11 853 q 53 925 33 906 q 100 956 74 944 q 157 968 126 968 l 299 968 q 371 949 339 968 q 422 899 403 931 l 521 803 q 563 701 563 761 l 563 514 l 375 514 l 328 560 l 328 310 l 443 310 l 443 301 m 415 282 l 275 282 q 277 244 275 268 q 277 198 279 221 q 265 158 275 175 q 232 140 256 140 q 196 150 211 140 q 181 183 181 160 l 181 757 q 193 786 181 774 q 222 799 206 799 q 263 784 251 799 q 278 748 275 769 q 278 702 281 726 q 275 658 275 678 l 415 658 l 415 822 q 381 906 415 871 q 299 940 347 940 l 157 940 q 74 906 108 940 q 39 822 39 871 l 39 117 q 74 34 39 68 q 157 0 108 0 l 299 0 q 381 35 346 0 q 415 117 415 69 l 415 282 z "},"D":{"ha":593,"x_min":15,"x_max":578,"o":"m 24 -28 l 15 -28 l 15 968 l 313 968 q 385 949 353 968 q 438 897 418 929 l 535 803 q 566 758 554 783 q 578 701 578 732 l 578 -4 q 567 -59 578 -33 q 536 -103 556 -85 q 491 -133 517 -122 q 436 -144 465 -144 l 143 -144 l 24 -28 m 289 183 q 277 153 289 167 q 247 140 265 140 l 183 140 l 183 799 l 247 799 q 276 786 264 799 q 289 757 289 774 l 289 183 m 431 822 q 396 906 431 871 q 313 940 361 940 l 43 940 l 43 0 l 313 0 q 396 34 361 0 q 431 117 431 68 l 431 822 z "},"E":{"ha":510,"x_min":13,"x_max":496,"o":"m 328 592 l 347 592 l 347 583 l 467 467 l 467 278 l 328 278 l 328 168 l 376 168 l 376 160 l 496 43 l 496 -144 l 140 -144 l 21 -28 l 13 -28 l 13 968 l 376 968 l 376 960 l 496 843 l 496 654 l 328 654 l 328 592 m 181 140 l 181 422 l 319 422 l 319 564 l 181 564 l 181 799 l 349 799 l 349 940 l 40 940 l 40 0 l 349 0 l 349 140 l 181 140 z "},"F":{"ha":522,"x_min":17,"x_max":506,"o":"m 386 968 l 386 960 l 506 843 l 506 656 l 333 656 l 333 599 l 357 599 l 357 590 l 476 474 l 476 285 l 333 285 l 333 -144 l 144 -144 l 25 -28 l 17 -28 l 17 968 l 386 968 m 44 940 l 44 0 l 186 0 l 186 429 l 329 429 l 329 571 l 186 571 l 186 800 l 358 800 l 358 940 l 44 940 z "},"G":{"ha":581,"x_min":14,"x_max":565,"o":"m 85 -8 q 33 44 53 11 q 14 117 14 76 l 14 822 q 25 879 14 853 q 56 925 36 906 q 103 956 76 944 q 160 968 129 968 l 300 968 q 373 949 340 968 q 425 897 406 929 l 426 896 l 522 803 q 553 758 542 783 q 565 701 565 732 l 565 514 l 461 514 l 565 413 l 565 -144 l 283 -144 q 183 -104 224 -144 l 85 -8 m 418 510 l 221 510 l 221 368 l 276 368 l 276 140 l 225 140 q 195 153 207 140 q 183 183 183 165 l 183 757 q 196 786 183 774 q 225 799 208 799 q 264 784 253 799 q 278 748 275 769 q 278 702 281 726 q 276 658 276 678 l 418 658 l 418 822 q 383 906 418 871 q 300 940 349 940 l 160 940 q 76 906 111 940 q 42 822 42 871 l 42 117 q 76 34 42 68 q 160 0 111 0 l 418 0 l 418 510 z "},"H":{"ha":592,"x_min":15,"x_max":578,"o":"m 458 960 l 578 843 l 578 -144 l 389 -144 l 332 -89 l 332 -144 l 143 -144 l 24 -28 l 15 -28 l 15 968 l 213 968 l 213 960 l 261 913 l 261 968 l 458 968 l 458 960 m 431 940 l 289 940 l 289 518 l 185 518 l 185 940 l 43 940 l 43 0 l 185 0 l 185 378 l 289 378 l 289 0 l 431 0 l 431 940 z "},"I":{"ha":349,"x_min":15,"x_max":332,"o":"m 213 968 l 213 960 l 332 843 l 332 -144 l 143 -144 l 24 -28 l 15 -28 l 15 968 l 213 968 m 43 940 l 43 0 l 185 0 l 185 940 l 43 940 z "},"J":{"ha":419,"x_min":13,"x_max":400,"o":"m 281 960 l 400 843 l 400 51 q 384 -25 400 11 q 341 -87 368 -61 q 278 -129 314 -114 q 203 -144 243 -144 l 140 -144 l 21 -28 l 13 -28 l 13 168 q 59 170 35 168 q 83 183 83 172 l 83 968 l 281 968 l 281 960 m 253 940 l 111 940 l 111 183 q 104 158 111 167 q 87 145 97 149 q 64 141 76 142 q 40 140 51 140 l 40 0 l 79 0 q 147 13 115 0 q 201 50 178 26 q 239 105 225 74 q 253 172 253 136 l 253 940 z "},"K":{"ha":581,"x_min":15,"x_max":576,"o":"m 213 960 l 243 929 l 253 968 l 454 968 l 451 960 l 572 843 l 424 283 q 461 179 442 233 q 501 69 481 125 q 540 -41 521 14 q 576 -144 560 -96 l 376 -144 l 332 -101 l 332 -144 l 143 -144 l 24 -28 l 15 -28 l 15 968 l 213 968 l 213 960 m 185 940 l 43 940 l 43 0 l 185 0 l 185 239 l 269 0 l 419 0 l 276 401 l 419 940 l 274 940 l 185 607 l 185 940 z "},"L":{"ha":490,"x_min":13,"x_max":479,"o":"m 21 -28 l 13 -28 l 13 968 l 208 968 l 208 960 l 328 843 l 328 168 l 360 168 l 360 160 l 479 43 l 479 -144 l 140 -144 l 21 -28 m 181 140 l 181 940 l 40 940 l 40 0 l 332 0 l 332 140 l 181 140 z "},"M":{"ha":696,"x_min":14,"x_max":683,"o":"m 564 968 l 564 960 l 683 843 l 683 -144 l 494 -144 l 433 -85 l 413 -151 l 331 -71 l 331 -144 l 142 -144 l 22 -28 l 14 -28 l 14 968 l 179 968 l 182 958 l 300 843 l 329 750 q 335 768 332 760 q 340 785 338 776 l 399 968 l 564 968 m 418 940 l 289 524 l 160 940 l 42 940 l 42 0 l 183 0 l 183 389 l 289 49 l 394 389 l 394 0 l 536 0 l 536 940 l 418 940 z "},"N":{"ha":599,"x_min":18,"x_max":582,"o":"m 463 968 l 463 960 l 582 843 l 582 -144 l 394 -144 l 333 -85 l 333 -144 l 146 -144 l 26 -28 l 18 -28 l 18 968 l 206 968 l 208 957 l 267 901 l 267 968 l 463 968 m 294 940 l 294 633 l 186 940 l 46 940 l 46 0 l 186 0 l 186 601 q 214 528 197 568 q 247 448 231 489 q 276 367 263 407 q 294 294 289 328 q 301 226 300 264 q 300 149 301 189 q 297 71 299 110 q 294 0 294 32 l 435 0 l 435 940 l 294 940 z "},"O":{"ha":583,"x_min":15,"x_max":567,"o":"m 88 -8 q 35 44 56 10 q 15 118 15 78 l 15 822 q 26 879 15 853 q 58 925 38 906 q 104 956 78 944 q 161 968 131 968 l 301 968 q 374 949 342 968 q 426 897 407 929 l 524 803 q 555 758 543 783 q 567 701 567 732 l 567 -3 q 556 -58 567 -32 q 525 -103 544 -83 q 480 -133 506 -122 q 425 -144 454 -144 l 285 -144 q 186 -104 226 -144 l 88 -8 m 278 183 q 266 153 278 165 q 236 142 254 142 l 226 142 q 197 153 208 142 q 185 183 185 165 l 185 757 q 197 788 185 775 q 226 800 208 800 l 236 800 q 266 788 254 800 q 278 757 278 775 l 278 183 m 419 822 q 385 906 419 871 q 301 940 350 940 l 161 940 q 78 906 113 940 q 43 822 43 871 l 43 118 q 78 35 43 69 q 161 0 113 0 l 301 0 q 385 35 350 0 q 419 118 419 69 l 419 822 z "},"P":{"ha":575,"x_min":15,"x_max":558,"o":"m 293 968 q 366 949 333 968 q 418 897 399 929 l 419 896 l 515 803 q 547 758 535 783 q 558 701 558 732 l 558 325 q 537 242 558 271 q 482 200 515 213 q 409 186 449 188 q 333 185 369 185 l 331 185 l 331 -144 l 143 -144 l 24 -28 l 15 -28 l 15 968 l 293 968 m 183 469 l 183 799 l 228 799 q 257 786 244 799 q 269 757 269 774 l 269 513 q 258 483 269 496 q 228 469 246 469 l 183 469 m 43 940 l 43 0 l 183 0 l 183 329 q 256 328 217 329 q 331 338 296 328 q 388 372 365 347 q 411 446 411 396 l 411 822 q 376 906 411 871 q 293 940 342 940 l 43 940 z "},"Q":{"ha":586,"x_min":17,"x_max":571,"o":"m 89 -8 q 37 44 57 10 q 17 118 17 78 l 17 822 q 28 879 17 853 q 59 925 39 906 q 106 956 79 944 q 163 968 132 968 l 304 968 q 376 949 344 968 q 428 899 408 931 l 526 803 q 568 701 568 761 l 571 -144 l 286 -144 q 188 -104 228 -144 l 89 -8 m 281 142 q 251 141 268 142 q 220 143 235 140 q 196 155 206 146 q 186 183 186 164 l 186 757 q 198 787 186 774 q 228 800 210 800 q 265 790 249 800 q 281 757 281 781 l 281 181 l 421 0 l 421 822 q 387 906 421 871 q 304 940 353 940 l 163 940 q 79 906 114 940 q 44 822 44 871 l 44 118 q 79 35 44 69 q 163 0 114 0 l 392 0 l 281 142 z "},"R":{"ha":589,"x_min":19,"x_max":578,"o":"m 28 -28 l 19 -28 l 19 968 l 306 968 q 378 949 346 968 q 431 897 411 929 l 528 803 q 559 758 547 783 q 571 701 571 732 l 571 326 q 553 253 571 286 q 500 203 535 221 q 539 27 518 119 q 578 -144 560 -65 l 382 -144 l 335 -99 l 335 -144 l 147 -144 l 28 -28 m 424 822 q 389 906 424 871 q 306 940 354 940 l 47 940 l 47 0 l 188 0 l 188 329 l 206 329 l 278 0 l 424 0 l 349 338 q 403 381 382 350 q 424 447 424 411 l 424 822 m 282 513 q 269 483 282 496 q 240 471 257 471 l 188 471 l 188 800 l 240 800 q 270 787 258 800 q 282 757 282 774 l 282 513 z "},"S":{"ha":586,"x_min":15,"x_max":565,"o":"m 453 375 q 454 374 454 375 l 453 375 m 444 382 l 453 375 l 451 375 l 444 382 m 331 529 q 343 488 331 508 q 388 439 367 464 l 444 382 l 442 385 l 451 375 l 454 374 l 467 363 q 536 276 507 324 q 565 165 565 228 l 565 -4 q 554 -58 565 -32 q 524 -103 543 -83 q 478 -133 504 -122 q 425 -144 453 -144 l 283 -144 q 185 -106 224 -144 l 85 -8 q 34 44 53 11 q 15 117 15 76 l 15 310 l 211 310 l 211 301 l 250 264 q 240 294 249 278 q 217 326 231 310 q 189 357 204 342 q 158 388 174 372 q 108 435 133 410 q 61 490 82 461 q 28 553 40 519 q 15 626 15 586 l 15 822 q 56 926 15 883 q 160 968 97 968 l 301 968 q 374 949 342 968 q 425 899 406 931 l 524 803 q 565 701 565 761 l 565 514 l 378 514 l 331 560 l 331 529 m 183 757 q 197 787 183 775 q 226 799 210 799 q 265 784 254 799 q 279 747 276 769 q 280 701 282 725 q 278 658 278 676 l 418 658 l 418 822 q 384 906 418 871 q 301 940 350 940 l 160 940 q 77 906 111 940 q 43 822 43 871 l 43 626 q 60 547 43 583 q 104 481 78 511 q 160 423 131 450 q 217 369 190 396 q 260 317 243 343 q 278 260 278 290 q 279 226 278 246 q 278 187 281 206 q 266 154 275 168 q 235 140 257 140 q 196 156 207 140 q 182 192 185 171 q 181 238 179 214 q 183 282 183 263 l 43 282 l 43 117 q 77 34 43 68 q 160 0 111 0 l 301 0 q 383 35 349 0 q 418 117 418 69 l 418 286 q 401 365 418 329 q 357 432 383 401 q 274 515 331 463 q 201 594 218 568 q 183 650 183 621 l 183 757 z "},"T":{"ha":554,"x_min":11,"x_max":542,"o":"m 422 968 l 422 960 l 542 843 l 542 656 l 435 656 l 435 -144 l 246 -144 l 126 -28 l 118 -28 l 118 675 l 19 772 l 11 772 l 11 968 l 422 968 m 39 940 l 39 800 l 146 800 l 146 0 l 288 0 l 288 800 l 394 800 l 394 940 l 39 940 z "},"U":{"ha":599,"x_min":18,"x_max":575,"o":"m 456 960 l 575 843 l 575 -4 q 535 -104 575 -64 q 435 -144 494 -144 l 288 -144 q 188 -104 228 -144 l 89 -8 q 38 44 57 11 q 18 117 18 76 l 18 968 l 214 968 l 214 960 l 260 915 l 260 968 l 456 968 l 456 960 m 428 940 l 288 940 l 288 183 q 272 150 288 160 q 236 140 256 140 q 186 189 186 135 q 186 271 186 243 l 186 940 l 46 940 l 46 117 q 81 34 46 68 q 164 0 115 0 l 311 0 q 394 34 360 0 q 428 117 428 68 l 428 940 z "},"V":{"ha":583,"x_min":15,"x_max":567,"o":"m 447 968 l 447 960 l 567 843 l 567 490 q 538 170 567 329 q 442 -144 508 11 l 268 -144 l 149 -28 l 142 -28 q 44 288 74 128 q 15 611 15 449 l 15 968 l 213 968 l 213 960 l 250 922 l 250 968 l 447 968 m 278 940 q 281 776 278 865 q 281 597 283 688 q 268 419 279 507 q 231 257 257 331 q 194 420 204 333 q 181 597 183 507 q 182 774 179 686 q 185 940 185 863 l 43 940 l 43 611 q 71 300 43 454 q 161 0 99 146 l 301 0 q 392 300 364 146 q 419 611 419 454 l 419 940 l 278 940 z "},"W":{"ha":818,"x_min":17,"x_max":803,"o":"m 683 968 l 683 960 l 803 843 l 803 490 q 774 170 803 329 q 679 -144 746 11 l 504 -144 l 458 -100 l 443 -144 l 269 -144 l 150 -28 l 143 -28 q 46 288 75 128 q 17 611 17 449 l 17 968 l 214 968 l 214 960 l 251 922 l 251 968 l 449 968 l 449 960 l 488 922 l 488 968 l 683 968 m 515 940 q 518 778 515 867 q 519 598 521 689 q 506 419 517 507 q 468 257 494 331 q 431 419 442 331 q 417 598 419 507 q 418 778 415 689 q 421 940 421 867 l 279 940 q 282 776 279 864 q 283 598 285 688 q 270 421 281 508 q 233 257 260 333 q 196 419 207 331 q 183 598 185 507 q 183 778 181 689 q 186 940 186 867 l 44 940 l 44 611 q 72 300 44 454 q 163 0 100 146 l 303 0 q 328 73 317 36 q 350 147 339 110 q 373 73 361 110 q 397 0 385 36 l 539 0 q 628 300 600 146 q 656 611 656 454 l 656 940 l 515 940 z "},"X":{"ha":596,"x_min":-18,"x_max":624,"o":"m 493 957 l 614 840 l 467 363 q 545 107 503 242 q 624 -147 588 -28 l 424 -147 l 336 -61 q 323 -104 329 -83 q 311 -144 317 -125 l 111 -144 l -8 -28 l -18 -28 l 140 483 l 81 675 q 34 823 57 747 q -8 965 11 899 l 201 965 l 204 956 l 264 896 l 286 965 l 496 965 l 493 957 m 458 938 l 306 938 l 243 733 l 181 938 l 29 938 l 168 483 l 19 0 l 171 0 l 243 236 l 317 -3 l 468 -3 l 319 483 l 458 938 z "},"Y":{"ha":583,"x_min":15,"x_max":567,"o":"m 64 346 q 67 342 67 343 q 71 339 68 340 l 64 346 m 447 960 l 567 843 l 567 321 q 557 273 567 296 q 531 232 547 250 q 492 201 514 214 q 449 182 471 188 l 449 -144 l 261 -144 l 142 -28 l 133 -28 l 133 278 l 92 318 q 38 369 60 338 q 15 442 15 401 l 15 968 l 213 968 l 213 960 l 250 922 l 250 968 l 447 968 l 447 960 m 419 940 l 278 940 l 278 757 l 278 508 q 266 478 278 490 q 236 465 254 465 q 200 475 215 465 q 185 508 185 485 l 185 940 l 43 940 l 43 442 q 78 359 43 393 q 161 325 113 325 l 161 0 l 301 0 l 301 325 q 385 359 350 325 q 419 442 419 393 l 419 940 z "},"Z":{"ha":569,"x_min":15,"x_max":556,"o":"m 24 769 l 15 769 l 15 968 l 436 968 l 436 960 l 556 843 l 556 675 l 382 167 l 436 167 l 436 158 l 556 42 l 556 -144 l 143 -144 l 24 -28 l 15 -28 l 15 154 l 185 653 l 143 653 l 24 769 m 183 139 l 408 799 q 408 820 408 800 q 408 865 408 840 q 408 913 408 890 q 408 940 408 936 l 43 940 l 43 797 l 263 797 l 43 150 q 43 126 43 149 q 43 78 43 104 q 43 28 43 51 q 43 0 43 4 l 408 0 l 408 139 l 183 139 z "},"a":{"ha":583,"x_min":15,"x_max":567,"o":"m 24 -28 l 15 -28 l 15 822 q 26 879 15 853 q 58 925 38 906 q 104 956 78 944 q 161 968 131 968 l 301 968 q 374 949 342 968 q 426 897 407 929 l 524 803 q 555 758 543 783 q 567 701 567 732 l 567 -144 l 378 -144 l 332 -100 l 332 -144 l 143 -144 l 24 -28 m 185 469 l 185 757 q 197 786 185 774 q 226 799 210 799 l 236 799 q 265 786 253 799 q 278 757 278 774 l 278 469 l 185 469 m 419 822 q 385 906 419 871 q 301 940 350 940 l 161 940 q 78 906 113 940 q 43 822 43 871 l 43 0 l 185 0 l 185 329 l 278 329 l 278 0 l 419 0 l 419 822 z "},"b":{"ha":583,"x_min":13,"x_max":565,"o":"m 21 -28 l 13 -28 l 13 968 l 281 968 q 365 950 325 968 q 426 896 404 932 l 524 800 l 526 799 q 555 756 544 781 q 565 701 565 732 l 565 481 q 519 376 565 415 l 524 374 q 565 272 565 333 l 564 -18 q 551 -69 564 -46 q 517 -108 538 -92 q 472 -135 497 -125 q 422 -144 447 -144 l 140 -144 l 21 -28 m 276 183 q 264 153 276 165 q 233 140 251 140 l 182 140 l 182 426 l 233 426 q 264 415 251 426 q 276 385 276 403 l 276 183 m 299 0 q 340 8 319 0 q 378 29 361 15 q 406 62 394 43 q 417 103 417 81 l 418 393 q 401 453 418 425 q 356 497 383 482 q 401 541 383 513 q 418 601 418 569 l 418 822 q 406 874 418 851 q 376 910 394 896 q 332 933 357 925 q 281 940 307 940 l 40 940 l 40 0 l 299 0 m 183 569 l 183 799 l 226 799 q 261 788 246 799 q 276 757 276 778 l 276 611 q 267 583 276 597 q 242 569 257 569 l 183 569 z "},"c":{"ha":578,"x_min":11,"x_max":563,"o":"m 443 301 l 563 185 l 563 -4 q 551 -58 563 -32 q 521 -103 540 -83 q 476 -133 501 -122 q 422 -144 450 -144 l 281 -144 q 181 -104 221 -144 l 82 -8 q 31 44 50 11 q 11 117 11 76 l 11 822 q 22 879 11 853 q 53 925 33 906 q 100 956 74 944 q 157 968 126 968 l 299 968 q 371 949 339 968 q 422 899 403 931 l 521 803 q 563 701 563 761 l 563 514 l 375 514 l 328 560 l 328 310 l 443 310 l 443 301 m 415 282 l 275 282 q 277 244 275 268 q 277 198 279 221 q 265 158 275 175 q 232 140 256 140 q 196 150 211 140 q 181 183 181 160 l 181 757 q 193 786 181 774 q 222 799 206 799 q 263 784 251 799 q 278 748 275 769 q 278 702 281 726 q 275 658 275 678 l 415 658 l 415 822 q 381 906 415 871 q 299 940 347 940 l 157 940 q 74 906 108 940 q 39 822 39 871 l 39 117 q 74 34 39 68 q 157 0 108 0 l 299 0 q 381 35 346 0 q 415 117 415 69 l 415 282 z "},"d":{"ha":593,"x_min":15,"x_max":578,"o":"m 24 -28 l 15 -28 l 15 968 l 313 968 q 385 949 353 968 q 438 897 418 929 l 535 803 q 566 758 554 783 q 578 701 578 732 l 578 -4 q 567 -59 578 -33 q 536 -103 556 -85 q 491 -133 517 -122 q 436 -144 465 -144 l 143 -144 l 24 -28 m 289 183 q 277 153 289 167 q 247 140 265 140 l 183 140 l 183 799 l 247 799 q 276 786 264 799 q 289 757 289 774 l 289 183 m 431 822 q 396 906 431 871 q 313 940 361 940 l 43 940 l 43 0 l 313 0 q 396 34 361 0 q 431 117 431 68 l 431 822 z "},"e":{"ha":510,"x_min":13,"x_max":496,"o":"m 328 592 l 347 592 l 347 583 l 467 467 l 467 278 l 328 278 l 328 168 l 376 168 l 376 160 l 496 43 l 496 -144 l 140 -144 l 21 -28 l 13 -28 l 13 968 l 376 968 l 376 960 l 496 843 l 496 654 l 328 654 l 328 592 m 181 140 l 181 422 l 319 422 l 319 564 l 181 564 l 181 799 l 349 799 l 349 940 l 40 940 l 40 0 l 349 0 l 349 140 l 181 140 z "},"f":{"ha":522,"x_min":17,"x_max":506,"o":"m 386 968 l 386 960 l 506 843 l 506 656 l 333 656 l 333 599 l 357 599 l 357 590 l 476 474 l 476 285 l 333 285 l 333 -144 l 144 -144 l 25 -28 l 17 -28 l 17 968 l 386 968 m 44 940 l 44 0 l 186 0 l 186 429 l 329 429 l 329 571 l 186 571 l 186 800 l 358 800 l 358 940 l 44 940 z "},"g":{"ha":581,"x_min":14,"x_max":565,"o":"m 85 -8 q 33 44 53 11 q 14 117 14 76 l 14 822 q 25 879 14 853 q 56 925 36 906 q 103 956 76 944 q 160 968 129 968 l 300 968 q 373 949 340 968 q 425 897 406 929 l 426 896 l 522 803 q 553 758 542 783 q 565 701 565 732 l 565 514 l 461 514 l 565 413 l 565 -144 l 283 -144 q 183 -104 224 -144 l 85 -8 m 418 510 l 221 510 l 221 368 l 276 368 l 276 140 l 225 140 q 195 153 207 140 q 183 183 183 165 l 183 757 q 196 786 183 774 q 225 799 208 799 q 264 784 253 799 q 278 748 275 769 q 278 702 281 726 q 276 658 276 678 l 418 658 l 418 822 q 383 906 418 871 q 300 940 349 940 l 160 940 q 76 906 111 940 q 42 822 42 871 l 42 117 q 76 34 42 68 q 160 0 111 0 l 418 0 l 418 510 z "},"h":{"ha":592,"x_min":15,"x_max":578,"o":"m 458 960 l 578 843 l 578 -144 l 389 -144 l 332 -89 l 332 -144 l 143 -144 l 24 -28 l 15 -28 l 15 968 l 213 968 l 213 960 l 261 913 l 261 968 l 458 968 l 458 960 m 431 940 l 289 940 l 289 518 l 185 518 l 185 940 l 43 940 l 43 0 l 185 0 l 185 378 l 289 378 l 289 0 l 431 0 l 431 940 z "},"i":{"ha":349,"x_min":15,"x_max":332,"o":"m 213 968 l 213 960 l 332 843 l 332 -144 l 143 -144 l 24 -28 l 15 -28 l 15 968 l 213 968 m 43 940 l 43 0 l 185 0 l 185 940 l 43 940 z "},"j":{"ha":419,"x_min":13,"x_max":400,"o":"m 281 960 l 400 843 l 400 51 q 384 -25 400 11 q 341 -87 368 -61 q 278 -129 314 -114 q 203 -144 243 -144 l 140 -144 l 21 -28 l 13 -28 l 13 168 q 59 170 35 168 q 83 183 83 172 l 83 968 l 281 968 l 281 960 m 253 940 l 111 940 l 111 183 q 104 158 111 167 q 87 145 97 149 q 64 141 76 142 q 40 140 51 140 l 40 0 l 79 0 q 147 13 115 0 q 201 50 178 26 q 239 105 225 74 q 253 172 253 136 l 253 940 z "},"k":{"ha":581,"x_min":15,"x_max":576,"o":"m 213 960 l 243 929 l 253 968 l 454 968 l 451 960 l 572 843 l 424 283 q 461 179 442 233 q 501 69 481 125 q 540 -41 521 14 q 576 -144 560 -96 l 376 -144 l 332 -101 l 332 -144 l 143 -144 l 24 -28 l 15 -28 l 15 968 l 213 968 l 213 960 m 185 940 l 43 940 l 43 0 l 185 0 l 185 239 l 269 0 l 419 0 l 276 401 l 419 940 l 274 940 l 185 607 l 185 940 z "},"l":{"ha":490,"x_min":13,"x_max":479,"o":"m 21 -28 l 13 -28 l 13 968 l 208 968 l 208 960 l 328 843 l 328 168 l 360 168 l 360 160 l 479 43 l 479 -144 l 140 -144 l 21 -28 m 181 140 l 181 940 l 40 940 l 40 0 l 332 0 l 332 140 l 181 140 z "},"m":{"ha":696,"x_min":14,"x_max":683,"o":"m 564 968 l 564 960 l 683 843 l 683 -144 l 494 -144 l 433 -85 l 413 -151 l 331 -71 l 331 -144 l 142 -144 l 22 -28 l 14 -28 l 14 968 l 179 968 l 182 958 l 300 843 l 329 750 q 335 768 332 760 q 340 785 338 776 l 399 968 l 564 968 m 418 940 l 289 524 l 160 940 l 42 940 l 42 0 l 183 0 l 183 389 l 289 49 l 394 389 l 394 0 l 536 0 l 536 940 l 418 940 z "},"n":{"ha":599,"x_min":18,"x_max":582,"o":"m 463 968 l 463 960 l 582 843 l 582 -144 l 394 -144 l 333 -85 l 333 -144 l 146 -144 l 26 -28 l 18 -28 l 18 968 l 206 968 l 208 957 l 267 901 l 267 968 l 463 968 m 294 940 l 294 633 l 186 940 l 46 940 l 46 0 l 186 0 l 186 601 q 214 528 197 568 q 247 448 231 489 q 276 367 263 407 q 294 294 289 328 q 301 226 300 264 q 300 149 301 189 q 297 71 299 110 q 294 0 294 32 l 435 0 l 435 940 l 294 940 z "},"o":{"ha":583,"x_min":15,"x_max":567,"o":"m 88 -8 q 35 44 56 10 q 15 118 15 78 l 15 822 q 26 879 15 853 q 58 925 38 906 q 104 956 78 944 q 161 968 131 968 l 301 968 q 374 949 342 968 q 426 897 407 929 l 524 803 q 555 758 543 783 q 567 701 567 732 l 567 -3 q 556 -58 567 -32 q 525 -103 544 -83 q 480 -133 506 -122 q 425 -144 454 -144 l 285 -144 q 186 -104 226 -144 l 88 -8 m 278 183 q 266 153 278 165 q 236 142 254 142 l 226 142 q 197 153 208 142 q 185 183 185 165 l 185 757 q 197 788 185 775 q 226 800 208 800 l 236 800 q 266 788 254 800 q 278 757 278 775 l 278 183 m 419 822 q 385 906 419 871 q 301 940 350 940 l 161 940 q 78 906 113 940 q 43 822 43 871 l 43 118 q 78 35 43 69 q 161 0 113 0 l 301 0 q 385 35 350 0 q 419 118 419 69 l 419 822 z "},"p":{"ha":575,"x_min":15,"x_max":558,"o":"m 293 968 q 366 949 333 968 q 418 897 399 929 l 419 896 l 515 803 q 547 758 535 783 q 558 701 558 732 l 558 325 q 537 242 558 271 q 482 200 515 213 q 409 186 449 188 q 333 185 369 185 l 331 185 l 331 -144 l 143 -144 l 24 -28 l 15 -28 l 15 968 l 293 968 m 183 469 l 183 799 l 228 799 q 257 786 244 799 q 269 757 269 774 l 269 513 q 258 483 269 496 q 228 469 246 469 l 183 469 m 43 940 l 43 0 l 183 0 l 183 329 q 256 328 217 329 q 331 338 296 328 q 388 372 365 347 q 411 446 411 396 l 411 822 q 376 906 411 871 q 293 940 342 940 l 43 940 z "},"q":{"ha":586,"x_min":17,"x_max":571,"o":"m 89 -8 q 37 44 57 10 q 17 118 17 78 l 17 822 q 28 879 17 853 q 59 925 39 906 q 106 956 79 944 q 163 968 132 968 l 304 968 q 376 949 344 968 q 428 899 408 931 l 526 803 q 568 701 568 761 l 571 -144 l 286 -144 q 188 -104 228 -144 l 89 -8 m 281 142 q 251 141 268 142 q 220 143 235 140 q 196 155 206 146 q 186 183 186 164 l 186 757 q 198 787 186 774 q 228 800 210 800 q 265 790 249 800 q 281 757 281 781 l 281 181 l 421 0 l 421 822 q 387 906 421 871 q 304 940 353 940 l 163 940 q 79 906 114 940 q 44 822 44 871 l 44 118 q 79 35 44 69 q 163 0 114 0 l 392 0 l 281 142 z "},"r":{"ha":589,"x_min":19,"x_max":578,"o":"m 28 -28 l 19 -28 l 19 968 l 306 968 q 378 949 346 968 q 431 897 411 929 l 528 803 q 559 758 547 783 q 571 701 571 732 l 571 326 q 553 253 571 286 q 500 203 535 221 q 539 27 518 119 q 578 -144 560 -65 l 382 -144 l 335 -99 l 335 -144 l 147 -144 l 28 -28 m 424 822 q 389 906 424 871 q 306 940 354 940 l 47 940 l 47 0 l 188 0 l 188 329 l 206 329 l 278 0 l 424 0 l 349 338 q 403 381 382 350 q 424 447 424 411 l 424 822 m 282 513 q 269 483 282 496 q 240 471 257 471 l 188 471 l 188 800 l 240 800 q 270 787 258 800 q 282 757 282 774 l 282 513 z "},"s":{"ha":586,"x_min":15,"x_max":565,"o":"m 453 375 q 454 374 454 375 l 453 375 m 444 382 l 453 375 l 451 375 l 444 382 m 331 529 q 343 488 331 508 q 388 439 367 464 l 444 382 l 442 385 l 451 375 l 454 374 l 467 363 q 536 276 507 324 q 565 165 565 228 l 565 -4 q 554 -58 565 -32 q 524 -103 543 -83 q 478 -133 504 -122 q 425 -144 453 -144 l 283 -144 q 185 -106 224 -144 l 85 -8 q 34 44 53 11 q 15 117 15 76 l 15 310 l 211 310 l 211 301 l 250 264 q 240 294 249 278 q 217 326 231 310 q 189 357 204 342 q 158 388 174 372 q 108 435 133 410 q 61 490 82 461 q 28 553 40 519 q 15 626 15 586 l 15 822 q 56 926 15 883 q 160 968 97 968 l 301 968 q 374 949 342 968 q 425 899 406 931 l 524 803 q 565 701 565 761 l 565 514 l 378 514 l 331 560 l 331 529 m 183 757 q 197 787 183 775 q 226 799 210 799 q 265 784 254 799 q 279 747 276 769 q 280 701 282 725 q 278 658 278 676 l 418 658 l 418 822 q 384 906 418 871 q 301 940 350 940 l 160 940 q 77 906 111 940 q 43 822 43 871 l 43 626 q 60 547 43 583 q 104 481 78 511 q 160 423 131 450 q 217 369 190 396 q 260 317 243 343 q 278 260 278 290 q 279 226 278 246 q 278 187 281 206 q 266 154 275 168 q 235 140 257 140 q 196 156 207 140 q 182 192 185 171 q 181 238 179 214 q 183 282 183 263 l 43 282 l 43 117 q 77 34 43 68 q 160 0 111 0 l 301 0 q 383 35 349 0 q 418 117 418 69 l 418 286 q 401 365 418 329 q 357 432 383 401 q 274 515 331 463 q 201 594 218 568 q 183 650 183 621 l 183 757 z "},"t":{"ha":554,"x_min":11,"x_max":542,"o":"m 422 968 l 422 960 l 542 843 l 542 656 l 435 656 l 435 -144 l 246 -144 l 126 -28 l 118 -28 l 118 675 l 19 772 l 11 772 l 11 968 l 422 968 m 39 940 l 39 800 l 146 800 l 146 0 l 288 0 l 288 800 l 394 800 l 394 940 l 39 940 z "},"u":{"ha":599,"x_min":18,"x_max":575,"o":"m 456 960 l 575 843 l 575 -4 q 535 -104 575 -64 q 435 -144 494 -144 l 288 -144 q 188 -104 228 -144 l 89 -8 q 38 44 57 11 q 18 117 18 76 l 18 968 l 214 968 l 214 960 l 260 915 l 260 968 l 456 968 l 456 960 m 428 940 l 288 940 l 288 183 q 272 150 288 160 q 236 140 256 140 q 186 189 186 135 q 186 271 186 243 l 186 940 l 46 940 l 46 117 q 81 34 46 68 q 164 0 115 0 l 311 0 q 394 34 360 0 q 428 117 428 68 l 428 940 z "},"v":{"ha":583,"x_min":15,"x_max":567,"o":"m 447 968 l 447 960 l 567 843 l 567 490 q 538 170 567 329 q 442 -144 508 11 l 268 -144 l 149 -28 l 142 -28 q 44 288 74 128 q 15 611 15 449 l 15 968 l 213 968 l 213 960 l 250 922 l 250 968 l 447 968 m 278 940 q 281 776 278 865 q 281 597 283 688 q 268 419 279 507 q 231 257 257 331 q 194 420 204 333 q 181 597 183 507 q 182 774 179 686 q 185 940 185 863 l 43 940 l 43 611 q 71 300 43 454 q 161 0 99 146 l 301 0 q 392 300 364 146 q 419 611 419 454 l 419 940 l 278 940 z "},"w":{"ha":818,"x_min":17,"x_max":803,"o":"m 683 968 l 683 960 l 803 843 l 803 490 q 774 170 803 329 q 679 -144 746 11 l 504 -144 l 458 -100 l 443 -144 l 269 -144 l 150 -28 l 143 -28 q 46 288 75 128 q 17 611 17 449 l 17 968 l 214 968 l 214 960 l 251 922 l 251 968 l 449 968 l 449 960 l 488 922 l 488 968 l 683 968 m 515 940 q 518 778 515 867 q 519 598 521 689 q 506 419 517 507 q 468 257 494 331 q 431 419 442 331 q 417 598 419 507 q 418 778 415 689 q 421 940 421 867 l 279 940 q 282 776 279 864 q 283 598 285 688 q 270 421 281 508 q 233 257 260 333 q 196 419 207 331 q 183 598 185 507 q 183 778 181 689 q 186 940 186 867 l 44 940 l 44 611 q 72 300 44 454 q 163 0 100 146 l 303 0 q 328 73 317 36 q 350 147 339 110 q 373 73 361 110 q 397 0 385 36 l 539 0 q 628 300 600 146 q 656 611 656 454 l 656 940 l 515 940 z "},"x":{"ha":596,"x_min":-18,"x_max":624,"o":"m 493 957 l 614 840 l 467 363 q 545 107 503 242 q 624 -147 588 -28 l 424 -147 l 336 -61 q 323 -104 329 -83 q 311 -144 317 -125 l 111 -144 l -8 -28 l -18 -28 l 140 483 l 81 675 q 34 823 57 747 q -8 965 11 899 l 201 965 l 204 956 l 264 896 l 286 965 l 496 965 l 493 957 m 458 938 l 306 938 l 243 733 l 181 938 l 29 938 l 168 483 l 19 0 l 171 0 l 243 236 l 317 -3 l 468 -3 l 319 483 l 458 938 z "},"y":{"ha":583,"x_min":15,"x_max":567,"o":"m 64 346 q 67 342 67 343 q 71 339 68 340 l 64 346 m 447 960 l 567 843 l 567 321 q 557 273 567 296 q 531 232 547 250 q 492 201 514 214 q 449 182 471 188 l 449 -144 l 261 -144 l 142 -28 l 133 -28 l 133 278 l 92 318 q 38 369 60 338 q 15 442 15 401 l 15 968 l 213 968 l 213 960 l 250 922 l 250 968 l 447 968 l 447 960 m 419 940 l 278 940 l 278 757 l 278 508 q 266 478 278 490 q 236 465 254 465 q 200 475 215 465 q 185 508 185 485 l 185 940 l 43 940 l 43 442 q 78 359 43 393 q 161 325 113 325 l 161 0 l 301 0 l 301 325 q 385 359 350 325 q 419 442 419 393 l 419 940 z "},"z":{"ha":569,"x_min":15,"x_max":556,"o":"m 24 769 l 15 769 l 15 968 l 436 968 l 436 960 l 556 843 l 556 675 l 382 167 l 436 167 l 436 158 l 556 42 l 556 -144 l 143 -144 l 24 -28 l 15 -28 l 15 154 l 185 653 l 143 653 l 24 769 m 183 139 l 408 799 q 408 820 408 800 q 408 865 408 840 q 408 913 408 890 q 408 940 408 936 l 43 940 l 43 797 l 263 797 l 43 150 q 43 126 43 149 q 43 78 43 104 q 43 28 43 51 q 43 0 43 4 l 408 0 l 408 139 l 183 139 z "},":":{"ha":349,"x_min":15,"x_max":332,"o":"m 213 169 l 213 161 l 332 44 l 332 -144 l 143 -144 l 24 -28 l 15 -28 l 15 169 l 213 169 m 213 890 l 213 882 l 332 765 l 332 576 l 143 576 l 24 693 l 15 693 l 15 890 l 213 890 m 43 863 l 43 721 l 185 721 l 185 863 l 43 863 m 43 142 l 43 0 l 185 0 l 185 142 l 43 142 z "},";":{"ha":349,"x_min":15,"x_max":332,"o":"m 213 890 l 213 882 l 332 765 l 332 576 l 143 576 l 24 693 l 15 693 l 15 890 l 213 890 m 43 863 l 43 721 l 185 721 l 185 863 l 43 863 m 213 168 l 213 160 l 332 43 l 332 -126 l 285 -218 l 196 -218 l 76 -101 l 68 -101 l 68 -69 l 25 -28 l 17 -28 l 17 168 l 213 168 m 44 140 l 44 0 l 96 0 l 96 -74 l 147 -74 l 185 0 l 185 140 l 44 140 z "},".":{"ha":349,"x_min":19,"x_max":336,"o":"m 217 169 l 217 161 l 336 44 l 336 -144 l 147 -144 l 28 -28 l 19 -28 l 19 169 l 217 169 m 47 142 l 47 0 l 189 0 l 189 142 l 47 142 z "},",":{"ha":340,"x_min":11,"x_max":326,"o":"m 207 168 l 207 160 l 326 43 l 326 -126 l 279 -218 l 190 -218 l 71 -101 l 63 -101 l 63 -69 l 19 -28 l 11 -28 l 11 168 l 207 168 m 39 140 l 39 0 l 90 0 l 90 -74 l 142 -74 l 179 0 l 179 140 l 39 140 z "},"?":{"ha":581,"x_min":15,"x_max":567,"o":"m 147 169 l 122 194 l 114 194 l 114 288 q 133 392 114 344 q 175 490 151 440 l 186 514 l 143 514 l 24 631 l 15 631 l 15 824 q 58 927 15 886 q 161 968 100 968 l 301 968 q 375 949 342 968 q 428 897 408 929 l 525 803 q 556 758 544 783 q 567 703 567 732 l 567 528 q 545 418 567 471 q 497 313 524 365 q 451 207 472 261 q 431 78 431 153 l 396 78 l 431 44 l 431 -144 l 242 -144 l 122 -28 l 114 -28 l 114 169 l 147 169 m 142 142 l 142 0 l 283 0 l 283 142 l 142 142 m 419 824 q 385 906 419 872 q 301 940 350 940 l 161 940 q 78 906 113 940 q 43 824 43 872 l 43 658 l 183 658 q 181 697 183 672 q 181 744 179 721 q 193 783 183 767 q 226 800 203 800 q 263 790 247 800 q 278 757 278 781 q 256 613 278 675 q 210 498 235 551 q 163 394 185 444 q 142 288 142 344 l 142 222 l 283 222 q 305 334 283 281 q 351 440 326 388 q 398 543 376 492 q 419 649 419 594 l 419 824 z "}," ":{"ha":232,"x_min":0,"x_max":0,"o":""},"!":{"ha":349,"x_min":17,"x_max":332,"o":"m 213 968 l 213 960 l 332 843 l 332 78 l 297 78 l 332 44 l 332 -144 l 144 -144 l 25 -28 l 17 -28 l 17 169 l 50 169 l 25 194 l 17 194 l 17 968 l 213 968 m 44 940 l 44 222 l 185 222 l 185 940 l 44 940 m 44 142 l 44 0 l 185 0 l 185 142 l 44 142 z "},"&":{"ha":699,"x_min":19,"x_max":683,"o":"m 668 413 q 681 389 679 401 q 683 361 683 376 q 681 288 683 324 q 667 219 678 251 q 636 158 657 186 q 579 110 615 131 q 581 56 579 85 q 580 -2 582 26 q 569 -57 578 -31 q 538 -103 560 -83 q 436 -144 492 -144 l 290 -144 q 236 -133 263 -144 q 195 -104 225 -129 q 133 -50 165 -79 q 74 7 101 -21 q 40 46 47 35 q 19 118 19 79 l 19 350 q 65 454 19 413 q 19 558 19 496 l 19 824 q 31 879 19 853 q 63 925 43 906 q 108 956 82 944 q 164 968 135 968 l 315 968 q 388 949 356 968 q 416 924 406 938 q 439 896 426 911 q 472 862 453 878 q 508 830 490 846 q 541 797 525 814 q 568 757 557 779 q 577 731 575 744 q 579 703 579 717 l 579 499 l 668 413 m 538 493 l 433 493 q 431 443 433 469 q 419 394 429 417 q 392 358 410 372 q 343 344 374 344 l 290 344 l 290 183 q 278 153 290 165 q 247 142 265 142 q 208 149 226 142 q 189 183 189 157 l 189 342 q 201 372 189 363 q 231 383 214 381 q 268 385 249 386 q 300 383 288 383 l 300 526 q 269 525 288 526 q 232 526 250 524 q 201 538 214 529 q 189 568 189 547 l 189 757 q 204 790 189 779 q 239 800 219 800 q 275 790 260 800 q 290 757 290 781 l 290 649 l 432 649 l 432 824 q 398 906 432 872 q 315 940 364 940 l 164 940 q 81 906 115 940 q 47 824 47 872 l 47 558 q 65 499 47 526 q 111 454 83 471 q 65 410 83 439 q 47 350 47 382 l 47 118 q 83 35 47 69 q 167 0 118 0 l 313 0 q 397 35 363 0 q 432 118 432 69 l 432 263 q 483 303 463 279 q 515 356 503 326 q 533 417 528 385 q 538 481 538 449 l 538 493 m 338 53 l 342 50 q 340 51 340 51 q 338 53 339 51 z "},"\u0000":{"ha":0,"x_min":0,"x_max":0,"o":""},"\r":{"ha":232,"x_min":0,"x_max":0,"o":""},"A":{"ha":583,"x_min":15,"x_max":567,"o":"m 24 -28 l 15 -28 l 15 822 q 26 879 15 853 q 58 925 38 906 q 104 956 78 944 q 161 968 131 968 l 301 968 q 374 949 342 968 q 426 897 407 929 l 524 803 q 555 758 543 783 q 567 701 567 732 l 567 -144 l 378 -144 l 332 -100 l 332 -144 l 143 -144 l 24 -28 m 185 469 l 185 757 q 197 786 185 774 q 226 799 210 799 l 236 799 q 265 786 253 799 q 278 757 278 774 l 278 469 l 185 469 m 419 822 q 385 906 419 871 q 301 940 350 940 l 161 940 q 78 906 113 940 q 43 822 43 871 l 43 0 l 185 0 l 185 329 l 278 329 l 278 0 l 419 0 l 419 822 z "}}}
